# xmcd
#
# Track frame offsets:
#	150
#	23971
#	46121
#	75281
#	97280
#	125129
#	160594
#	184368
#	203188
#	220751
#	251765
#	272382
#	292636
#
# Disc length: 4211 seconds
#
# Revision: 1
# Processed by: cddbd v1.5.2PL0 Copyright (c) Steve Scherf et al.
# Submitted via: EZCDAudioConverter 3.1.7.1
#
DISCID=b010710d
DTITLE=Frank Cottrell Boyce - Cosmic
DYEAR=2009
DGENRE=Books and Spoken
TTITLE0=Disc 2 Track 1
TTITLE1=Disc 2 Track 2
TTITLE2=Disc 2 Track 3
TTITLE3=Disc 2 Track 4
TTITLE4=Disc 2 Track 5
TTITLE5=Disc 2 Track 6
TTITLE6=Disc 2 Track 7
TTITLE7=Disc 2 Track 8
TTITLE8=Disc 2 Track 9
TTITLE9=Disc 2 Track 10
TTITLE10=Disc 2 Track 11
TTITLE11=Disc 2 Track 12
TTITLE12=Disc 2 Track 13
EXTD=
EXTT0=
EXTT1=
EXTT2=
EXTT3=
EXTT4=
EXTT5=
EXTT6=
EXTT7=
EXTT8=
EXTT9=
EXTT10=
EXTT11=
EXTT12=
PLAYORDER=
